<svg id="Layer_1" data-name="Layer 1" xmlns="http://www.w3.org/2000/svg" xmlns:xlink="http://www.w3.org/1999/xlink" viewBox="0 0 91.34 91.34"><defs><style>.cls-1{fill:url(#linear-gradient);}.cls-2{fill:url(#linear-gradient-2);}.cls-3{fill:#333f48;}</style><linearGradient id="linear-gradient" x1="41.45" y1="1364.23" x2="23.49" y2="1344.39" gradientTransform="translate(0 -1290.85)" gradientUnits="userSpaceOnUse"><stop offset="0" stop-color="#fff" stop-opacity="0"/><stop offset="0.07" stop-color="#fff" stop-opacity="0.07"/><stop offset="0.19" stop-color="#fff" stop-opacity="0.19"/><stop offset="0.31" stop-color="#fff" stop-opacity="0.31"/><stop offset="0.43" stop-color="#fff" stop-opacity="0.43"/><stop offset="0.55" stop-color="#fff" stop-opacity="0.55"/><stop offset="0.69" stop-color="#fff" stop-opacity="0.69"/><stop offset="0.83" stop-color="#fff" stop-opacity="0.83"/><stop offset="1" stop-color="#fff"/></linearGradient><linearGradient id="linear-gradient-2" x1="-1019.8" y1="-398.54" x2="-1037.76" y2="-418.37" gradientTransform="translate(-962.12 -380.24) rotate(180)" xlink:href="#linear-gradient"/></defs><path id="SVGID" class="cls-1" d="M30.44,77.12c-17.2-9-23.7-29.8-15.2-47.4l7.1,3.4A28.42,28.42,0,0,0,35.74,71a34.63,34.63,0,0,0,8.1,2.4c2.5.2,1.9,1.6,1,2.1A29.09,29.09,0,0,1,32.24,78S30.54,77.12,30.44,77.12Z"/><path id="SVGID-2" data-name="SVGID" class="cls-2" d="M68.64,14.52c17.2,9,23.7,29.8,15.2,47.4l-7.1-3.4a28.42,28.42,0,0,0-13.4-37.9,34.63,34.63,0,0,0-8.1-2.4c-2.5-.2-1.9-1.6-1-2.1a29.09,29.09,0,0,1,12.6-2.5A15.11,15.11,0,0,0,68.64,14.52Z"/><path class="cls-3" d="M22.24,33.12a28.65,28.65,0,0,1,12.5-13,20.88,20.88,0,0,1,4.1-1.7,20.38,20.38,0,0,0-2.6,3.9c-3.8,7.6-3.1,19.1,11.1,26.9h0c.1.1.2.1.3.2a.31.31,0,0,0,.2.1h0c7.9,4.3,10.4,9.8,7.9,16.5-4.9,12.9-22.1,12.9-22.1,12.9,22.7,9.7,44.5-3.1,50.2-16.8l-7.1-3.4a28.65,28.65,0,0,1-12.5,13,20.88,20.88,0,0,1-4.1,1.7,20.38,20.38,0,0,0,2.6-3.9c3.8-7.6,3.1-19.1-11.1-26.9h0c-.1-.1-.2-.1-.3-.2a.31.31,0,0,0-.2-.1h0c-7.9-4.3-10.4-9.8-7.9-16.5,4.9-12.9,22.1-12.9,22.1-12.9-22.7-9.7-44.5,3.1-50.2,16.8Z"/></svg>