<?xml version="1.0" encoding="utf-8"?>
<!-- Generator: Adobe Illustrator 22.0.1, SVG Export Plug-In . SVG Version: 6.00 Build 0)  -->
<svg version="1.1" id="Layer_1" xmlns="http://www.w3.org/2000/svg" xmlns:xlink="http://www.w3.org/1999/xlink" x="0px" y="0px"
	 viewBox="0 0 526.3 78.1" style="enable-background:new 0 0 526.3 78.1;" xml:space="preserve">
<style type="text/css">
	.st0{fill:#333F48;}
	.st1{fill:url(#SVGID_2_);}
	.st2{fill:#EAE629;}
	.st3{fill:url(#SVGID_3_);}
</style>
<g>
	<path class="st0" d="M135.3,24.7h-8.8V62h8.8V24.7z M74.5,24.7h-8.8V62h8.8V24.7z M11.8,24.5c0-4,3.1-5,8.9-5
		c5.2,0,10.2,0.5,14,0.9v-7c-2.3-0.6-8.2-1.6-14.4-1.6c-11.7,0-17.6,3.4-17.6,13c0,7.2,3.9,11.3,11.2,14.3l7.4,3
		c4.9,2.1,6.2,3.8,6.2,7c0,4.5-2.9,6.1-8.8,6.1c-6.2,0-10.7-0.4-14.8-0.8v7.1c2.5,0.7,9.1,1.5,15.5,1.5c11.1,0,17.5-5,17.5-14
		c0-8.4-3.4-11.8-12.1-15.4L18.1,31C13.2,29,11.8,27.5,11.8,24.5 M52.3,63c3.3,0,6.6-0.8,7.5-1.1V56c-1.1,0.2-3.7,0.3-5.6,0.3
		c-3.2,0-3.4-0.7-3.4-4.1V31.7h9.1v-7h-9.1v-9.5H42v37.1C42,60.1,44.9,63,52.3,63 M65.5,18.9h9v-8.4h-9L65.5,18.9L65.5,18.9z
		 M91.7,34c2.9-1.3,7.8-2.3,12.3-2.3v-8c-4.6,0-9.2,0.9-12.7,4v-3H83v37.3h8.7L91.7,34L91.7,34z M108.9,62h8.8V10.5h-8.8V62z
		 M126.5,18.9h9v-8.4h-9V18.9z M167.7,62h8.8V38.3c0-8.5-1.4-14.6-11.9-14.6c-4.2,0-8.2,1.6-12.3,3.9v-3h-8.4V62h8.7V33.7
		c4-1.6,7.3-2.5,9.8-2.5c4.3,0,5.2,1.8,5.2,7.2L167.7,62L167.7,62z M207.1,54.7c-0.9,0.2-3.9,0.5-6.3,0.5c-6.5,0-8.9-2.5-8.9-9.9
		v-4.1c0-6.9,1.8-10.1,9-10.1c2.8,0,5.4,0.3,6.1,0.4V54.7z M215.9,63.4V24.7c-4.1-0.5-9.4-0.9-14.3-0.9c-12.9,0-18.3,5.5-18.3,17.3
		v4.2c0,12.5,6.3,17.2,17.2,17.2c2.4,0,5.5-0.3,6.7-0.5v1.4c0,4.3-0.8,6.3-7.7,6.3c-4.6,0-9.9-0.3-14.1-0.6V75
		c1.3,0.3,8.2,1.4,14.6,1.4C212.7,76.5,215.9,71.5,215.9,63.4 M244.5,24.5c0-4,3.1-5,8.9-5c5.2,0,10.2,0.5,14,0.9v-7
		c-2.3-0.6-8.2-1.6-14.4-1.6c-11.7,0-17.6,3.4-17.6,13c0,7.2,3.9,11.3,11.2,14.3l7.4,3c4.9,2.1,6.2,3.8,6.2,7c0,4.5-2.9,6.1-8.8,6.1
		c-6.2,0-10.7-0.4-14.8-0.8v7.1c2.5,0.7,9.1,1.5,15.5,1.5c11.1,0,17.5-5,17.5-14c0-8.4-3.4-11.8-12.1-15.4l-6.7-2.7
		C245.8,29,244.5,27.5,244.5,24.5 M298.3,44.8c0,9.1-3,10.9-8.4,10.9c-2.1,0-4.4-0.3-6.9-0.7V33.3c3.6-1.6,5.7-2,8.1-2
		c4.8,0,7.2,2.3,7.2,10.1L298.3,44.8L298.3,44.8z M307,44.8v-3.4c0-12.9-5.1-17.6-13.4-17.6c-3.6,0-7.5,1.1-10.9,3.4v-2.5h-8.2v51
		h8.7V62.1c1.9,0.5,5.1,0.8,7.4,0.8C300.3,63,307,58.6,307,44.8 M336.5,45.6c0,7.2-2.5,9.9-8.2,9.9c-5.7,0-8.2-2.7-8.2-9.9v-4.6
		c0-7.2,2.5-9.8,8.2-9.8c5.7,0,8.2,2.7,8.2,9.8V45.6z M345.2,45.6v-4.6c0-11.7-5.9-17.3-16.8-17.3s-16.8,5.6-16.8,17.3v4.6
		c0,11.8,5.9,17.4,16.8,17.4S345.2,57.4,345.2,45.6 M359.8,34c2.9-1.3,7.8-2.3,12.3-2.3v-8c-4.6,0-9.2,0.9-12.7,4v-3h-8.3v37.3h8.7
		L359.8,34L359.8,34z M386,63c3.3,0,6.6-0.8,7.5-1.1V56c-1.1,0.2-3.7,0.3-5.6,0.3c-3.2,0-3.4-0.7-3.4-4.1V31.7h9.1v-7h-9.1v-9.5
		h-8.8v37.1C375.8,60.1,378.7,63,386,63 M412.4,30.6c3.2,0,7.3,0.3,11.5,0.7v-6.1c-1.8-0.6-7.4-1.4-11.7-1.4
		c-9.9,0-14.9,2.7-14.9,10.2c0,5.7,3.2,9,10.3,11.7l2.9,1.1c5.5,2.2,6.6,2.9,6.6,5.4c0,2.7-1.4,3.9-6.9,3.9
		c-4.8,0-10.4-0.7-12.3-0.9v6.2c1.6,0.5,7.5,1.4,12.7,1.4c10.4,0,15.1-4.3,15.1-11.3c-0.1-6.2-2.9-8.7-10.9-11.9l-3-1.2
		c-4.6-1.8-5.9-2.5-5.9-4.8C405.9,31.1,407.8,30.6,412.4,30.6"/>
	<g>
		<g>
			<g>
				
					<linearGradient id="SVGID_2_" gradientUnits="userSpaceOnUse" x1="476.3998" y1="-277.611" x2="458.437" y2="-257.777" gradientTransform="matrix(1 0 0 -1 0 -210.8461)">
					<stop  offset="0" style="stop-color:#FFFFFF;stop-opacity:0"/>
					<stop  offset="7.289779e-02" style="stop-color:#DEE0E1;stop-opacity:7.289779e-02"/>
					<stop  offset="0.1871" style="stop-color:#B1B6B9;stop-opacity:0.1871"/>
					<stop  offset="0.3061" style="stop-color:#8A9196;stop-opacity:0.3061"/>
					<stop  offset="0.4283" style="stop-color:#6B737A;stop-opacity:0.4283"/>
					<stop  offset="0.5548" style="stop-color:#525C64;stop-opacity:0.5548"/>
					<stop  offset="0.6873" style="stop-color:#414C54;stop-opacity:0.6873"/>
					<stop  offset="0.8297" style="stop-color:#36424B;stop-opacity:0.8297"/>
					<stop  offset="1" style="stop-color:#333F48"/>
				</linearGradient>
				<path id="SVGID_1_" class="st1" d="M465.4,70.5c-17.2-9-23.7-29.8-15.2-47.4l7.1,3.4c-6.8,14.2-0.7,31.2,13.4,37.9
					c0,0,3.4,1.6,8.1,2.4c2.5,0.2,1.9,1.6,1,2.1c-5.4,2.4-10.4,2.6-12.6,2.5C467.2,71.4,465.5,70.5,465.4,70.5z"/>
			</g>
		</g>
		<path class="st2" d="M486.4,35.6L486.4,35.6L486.4,35.6L486.4,35.6z"/>
		<path class="st2" d="M483,42.8L483,42.8L483,42.8L483,42.8z"/>
		<path class="st2" d="M482.8,42.8L482.8,42.8L482.8,42.8L482.8,42.8z"/>
		<path class="st2" d="M486.2,35.6L486.2,35.6L486.2,35.6L486.2,35.6z"/>
		<g>
			<g>
				
					<linearGradient id="SVGID_3_" gradientUnits="userSpaceOnUse" x1="807.1479" y1="485.154" x2="789.1848" y2="504.9882" gradientTransform="matrix(-1 0 0 1 1299.7891 -473.48)">
					<stop  offset="0" style="stop-color:#FFFFFF;stop-opacity:0"/>
					<stop  offset="7.289779e-02" style="stop-color:#DEE0E1;stop-opacity:7.289779e-02"/>
					<stop  offset="0.1871" style="stop-color:#B1B6B9;stop-opacity:0.1871"/>
					<stop  offset="0.3061" style="stop-color:#8A9196;stop-opacity:0.3061"/>
					<stop  offset="0.4283" style="stop-color:#6B737A;stop-opacity:0.4283"/>
					<stop  offset="0.5548" style="stop-color:#525C64;stop-opacity:0.5548"/>
					<stop  offset="0.6873" style="stop-color:#414C54;stop-opacity:0.6873"/>
					<stop  offset="0.8297" style="stop-color:#36424B;stop-opacity:0.8297"/>
					<stop  offset="1" style="stop-color:#333F48"/>
				</linearGradient>
				<path id="SVGID_4_" class="st3" d="M503.6,7.9c17.2,9,23.7,29.8,15.2,47.4l-7.1-3.4c6.8-14.2,0.7-31.2-13.4-37.9
					c0,0-3.4-1.6-8.1-2.4c-2.5-0.2-1.9-1.6-1-2.1c5.4-2.4,10.4-2.6,12.6-2.5C501.8,7.1,503.6,7.9,503.6,7.9z"/>
			</g>
		</g>
		<path class="st0" d="M457.2,26.5c2.8-5.8,7.2-10.2,12.5-13c1.3-0.7,2.7-1.3,4.1-1.7c-1,1.2-1.9,2.5-2.6,3.9
			c-3.8,7.6-3.1,19.1,11.1,26.9l0,0c0.1,0.1,0.2,0.1,0.3,0.2c0.1,0.1,0.2,0.1,0.2,0.1l0,0c7.9,4.3,10.4,9.8,7.9,16.5
			c-4.9,12.9-22.1,12.9-22.1,12.9c22.7,9.7,44.5-3.1,50.2-16.8l-7.1-3.4c-2.8,5.8-7.2,10.2-12.5,13c-1.3,0.7-2.7,1.3-4.1,1.7
			c1-1.2,1.9-2.5,2.6-3.9c3.8-7.6,3.1-19.1-11.1-26.9l0,0c-0.1-0.1-0.2-0.1-0.3-0.2c-0.1-0.1-0.2-0.1-0.2-0.1l0,0
			c-7.9-4.3-10.4-9.8-7.9-16.5c4.9-12.9,22.1-12.9,22.1-12.9c-22.7-9.7-44.5,3.1-50.2,16.8L457.2,26.5z"/>
		<path class="st2" d="M482.8,42.8L482.8,42.8L482.8,42.8L482.8,42.8z"/>
		<path class="st2" d="M486.1,35.6L486.1,35.6L486.1,35.6L486.1,35.6z"/>
		<path class="st2" d="M486.3,35.6L486.3,35.6L486.3,35.6L486.3,35.6z"/>
		<path class="st2" d="M483,42.8L483,42.8L483,42.8L483,42.8z"/>
	</g>
</g>
</svg>
